<?xml version="1.0" encoding="UTF-8"?>
<svg xmlns="http://www.w3.org/2000/svg" xmlns:xlink="http://www.w3.org/1999/xlink" width="20pt" height="20pt" viewBox="0 0 20 20" version="1.1">
<g id="surface1">
<path style=" stroke:none;fill-rule:nonzero;fill:rgb(100%,100%,100%);fill-opacity:1;" d="M 9.316406 18.992188 C 8.871094 18.546875 8.386719 17.5 8.226562 16.691406 C 7.984375 15.363281 8.066406 15.078125 9.03125 14.234375 C 9.796875 13.589844 10.644531 13.304688 11.855469 13.304688 C 14.03125 13.304688 15.121094 14.03125 14.835938 15.441406 C 14.558594 16.855469 15.96875 17.21875 17.21875 16.046875 C 18.710938 14.636719 18.347656 12.703125 16.210938 10.402344 C 15.121094 9.234375 15.242188 8.066406 16.414062 8.066406 C 18.265625 8.105469 20.160156 11.289062 20.160156 14.316406 C 20.160156 15.765625 19.917969 16.332031 18.75 17.582031 C 17.378906 19.035156 17.339844 19.070312 15 18.789062 C 13.105469 18.589844 12.5 18.667969 12.097656 19.152344 C 11.410156 20 10.242188 19.917969 9.316406 18.992188 Z M 9.316406 18.992188 "/>
<path style=" stroke:none;fill-rule:nonzero;fill:rgb(100%,100%,100%);fill-opacity:1;" d="M 2.742188 11.449219 C 1.25 10.644531 0 8.105469 0 5.886719 C 0 4.394531 0.242188 3.832031 1.410156 2.578125 C 2.78125 1.128906 2.863281 1.089844 5.082031 1.371094 C 6.894531 1.570312 7.542969 1.492188 8.105469 0.96875 C 9.675781 -0.445312 12.097656 1.613281 12.097656 4.394531 C 12.097656 5.644531 10.199219 6.855469 8.308594 6.855469 C 6.128906 6.855469 5.039062 6.089844 5.324219 4.71875 C 5.605469 3.308594 4.191406 2.941406 2.941406 4.113281 C 1.371094 5.5625 1.855469 7.78125 4.152344 9.71875 C 4.957031 10.402344 5.28125 11.007812 5.121094 11.449219 C 4.796875 12.257812 4.191406 12.257812 2.742188 11.449219 Z M 2.742188 11.449219 "/>
</g>
</svg>
