<svg xmlns="http://www.w3.org/2000/svg" version="1.1" viewBox="1.61 5 62.79 60.07">
<g id="#000000ff">
</g>
<g id="#d8776cff">
<path fill="#d8776c" opacity="1.00" d=" M 30.91 9.48 C 31.64 8.04 31.39 4.79 33.51 5.01 C 34.23 6.42 34.66 7.94 35.09 9.46 C 35.91 13.43 41.04 15.63 39.85 20.01 C 39.16 22.25 37.32 23.90 36.02 25.79 C 39.83 24.78 42.15 21.35 44.67 18.59 C 47.37 14.90 50.78 11.81 54.52 9.19 C 54.92 9.52 55.73 10.19 56.13 10.52 C 55.23 13.71 53.56 16.60 52.33 19.67 C 55.38 17.65 58.38 14.88 62.27 14.94 C 61.17 18.14 59.04 20.80 57.08 23.50 C 59.42 22.57 61.86 21.92 64.39 22.01 C 62.65 25.76 58.96 27.83 55.88 30.33 C 58.74 30.09 61.56 29.53 64.40 29.16 C 63.09 32.61 59.37 33.77 56.33 35.24 C 53.75 36.43 50.94 37.04 48.10 37.11 C 47.73 37.50 46.98 38.27 46.61 38.65 C 48.03 41.73 51.99 45.69 47.99 48.53 C 47.85 51.82 47.23 55.23 44.90 57.71 C 45.93 58.60 46.96 59.50 47.98 60.39 C 49.58 59.18 50.94 56.76 53.22 57.12 C 54.38 57.99 55.80 60.02 54.23 61.21 C 50.89 63.95 46.38 65.08 42.11 65.07 C 42.11 63.48 42.19 61.89 41.94 60.31 C 39.94 58.66 37.31 56.71 34.56 57.45 C 32.88 57.94 31.20 57.29 29.51 57.23 C 28.01 57.78 26.58 58.51 25.15 59.21 C 24.68 60.14 24.21 61.07 23.74 62.00 C 23.82 62.76 23.97 64.28 24.05 65.04 C 19.75 65.02 14.97 64.29 11.77 61.18 C 10.06 59.95 12.04 58.27 12.58 56.96 C 13.06 57.02 14.03 57.13 14.52 57.19 C 15.67 58.28 16.84 59.34 17.99 60.42 C 19.02 59.52 20.05 58.62 21.08 57.72 C 19.81 56.14 18.91 54.33 18.35 52.38 C 18.57 49.61 17.24 47.26 15.81 45.02 C 17.13 42.98 18.26 40.82 19.37 38.66 C 19.00 38.28 18.27 37.50 17.90 37.12 C 13.02 37.10 8.52 34.95 4.37 32.57 C 2.96 31.89 2.30 30.44 1.68 29.10 C 4.48 29.55 7.27 30.11 10.10 30.34 C 7.03 27.82 3.33 25.76 1.61 21.99 C 4.14 21.93 6.59 22.58 8.93 23.52 C 6.96 20.81 4.81 18.15 3.74 14.92 C 7.62 14.90 10.62 17.65 13.66 19.68 C 12.97 16.17 8.47 12.56 11.18 9.02 C 15.04 11.65 18.54 14.81 21.32 18.59 C 23.81 21.36 26.17 24.65 29.87 25.85 C 28.05 23.14 24.78 20.14 26.36 16.55 C 28.17 14.38 29.88 12.13 30.91 9.48 Z"/>
</g>
</svg>